#!OML:ASF H:\MichaelJackson\Top Level 1\Subject 1\Session 1\male.ASF
:FULLY-SPECIFIED
:DEGREES
280
root 1.93184 15.1299 -28.9618 8.22836 20.1544 -12.3763
lowerback 5.27728 -0.0667024 5.91693
upperback -2.82914 0.450622 1.29474
thorax -5.89213 0.020064 -2.01412
lowerneck -10.9767 1.99974 -0.602992
upperneck -2.3886 2.80872 -3.69511
head 1.14599 1.34127 -0.935995
rclavicle 5.02925e-014 -2.06736e-014
rhumerus 28.3499 -26.6323 -31.7255
rradius 117.345
rwrist -51.3519
rhand -0.688152 -18.0042
rfingers 7.12502
rthumb 24.9311 -46.398
lclavicle 5.02925e-014 -2.06736e-014
lhumerus -62.7165 -32.2052 107.57
lradius 80.1316
lwrist 24.9598
lhand 9.13253 16.8219
lfingers 7.12502
lthumb 34.3031 43.5379
rfemur -28.2935 -33.1867 11.9203
rtibia 42.9711
rfoot -14.5975 -0.780907
rtoes -42.4768
lfemur -42.4563 29.5831 6.23352
ltibia 62.1535
lfoot -15.6032 13.0201
ltoes -9.10126
281
root 2.00791 15.1396 -28.9613 7.95463 21.7029 -12.8076
lowerback 5.2031 0.0601536 5.83119
upperback -2.94668 0.621074 1.40785
thorax -5.96204 0.106767 -1.86484
lowerneck -10.9057 1.94907 -0.470139
upperneck -1.9436 2.74305 -3.87134
head 1.2834 1.29751 -1.017
rclavicle 1.09332e-014 4.77083e-015
rhumerus 30.3369 -28.9982 -35.7443
rradius 115.587
rwrist -54.882
rhand -5.48798 -18.0966
rfingers 7.12502
rthumb 20.3245 -47.0531
lclavicle 1.09332e-014 4.77083e-015
lhumerus -62.4503 -31.9547 107.004
lradius 80.4834
lwrist 24.8463
lhand 8.49213 15.967
lfingers 7.12502
lthumb 33.6948 42.818
rfemur -26.8942 -32.9988 11.7167
rtibia 41.9313
rfoot -13.6804 -2.11895
rtoes -42.6956
lfemur -43.807 29.5612 5.56727
ltibia 62.7195
lfoot -15.9468 12.7066
ltoes -7.51481
282
root 2.08974 15.1555 -28.9574 7.65395 23.3004 -13.2342
lowerback 5.10508 0.170646 5.69067
upperback -3.07358 0.764617 1.52354
thorax -6.03166 0.18266 -1.67928
lowerneck -10.887 1.90497 -0.326773
upperneck -1.35988 2.69082 -4.03622
head 1.47593 1.2574 -1.09606
rclavicle 1.37161e-014 -1.11319e-014
rhumerus 32.3992 -31.158 -40.0166
rradius 114.062
rwrist -58.4798
rhand -9.38519 -18.6425
rfingers 7.12502
rthumb 16.5756 -47.9546
lclavicle 1.37161e-014 -1.11319e-014
lhumerus -62.1173 -31.5926 106.426
lradius 80.7334
lwrist 24.5805
lhand 7.88663 14.9276
lfingers 7.12502
lthumb 33.1192 41.9026
rfemur -25.3427 -32.5626 11.474
rtibia 40.7324
rfoot -12.569 -3.68286
rtoes -42.8927
lfemur -45.0208 29.4305 4.92457
ltibia 63.1542
lfoot -16.3704 12.2152
ltoes -5.83395
283
root 2.17828 15.1773 -28.9505 7.31082 24.9609 -13.6963
lowerback 4.98392 0.260106 5.53446
upperback -3.21349 0.87922 1.65424
thorax -6.10541 0.24546 -1.46607
lowerneck -10.8485 1.86919 -0.220862
upperneck -0.708472 2.65536 -4.13945
head 1.68655 1.22603 -1.14929
rclavicle -7.0171e-014 3.33958e-014
rhumerus 34.4125 -33.1201 -44.451
rradius 112.835
rwrist -61.9638
rhand -12.7252 -19.8278
rfingers 7.12502
rthumb 13.3581 -49.3796
lclavicle -7.0171e-014 3.33958e-014
lhumerus -61.7384 -31.1187 105.861
lradius 80.8759
lwrist 24.213
lhand 7.31058 13.797
lfingers 7.12502
lthumb 32.5713 40.8867
rfemur -23.6429 -31.8749 11.2488
rtibia 39.3615
rfoot -11.2383 -5.47823
rtoes -43.0602
lfemur -46.0935 29.1679 4.36615
ltibia 63.4586
lfoot -16.8603 11.5724
ltoes -4.26978
284
root 2.27435 15.2044 -28.9405 6.90014 26.7062 -14.2308
lowerback 4.84644 0.325936 5.40827
upperback -3.36907 0.965732 1.79929
thorax -6.18943 0.293603 -1.25155
lowerneck -10.8377 1.823 -0.106831
upperneck 0.0628061 2.60973 -4.22886
head 1.94293 1.18745 -1.20094
rclavicle 6.1822e-014 1.59028e-014
rhumerus 36.1697 -34.9092 -48.8496
rradius 111.93
rwrist -65.1307
rhand -15.8994 -21.5692
rfingers 7.12502
rthumb 10.2972 -51.2972
lclavicle 6.1822e-014 1.59028e-014
lhumerus -61.3357 -30.5637 105.325
lradius 80.9019
lwrist 23.8031
lhand 6.84121 12.4781
lfingers 7.12502
lthumb 32.1245 39.659
rfemur -21.7881 -30.9316 11.087
rtibia 37.8108
rfoot -9.68377 -7.51509
rtoes -43.1482
lfemur -47.0237 28.7672 3.92906
ltibia 63.6393
lfoot -17.3772 10.8431
ltoes -2.84204
285
root 2.37913 15.2362 -28.9275 6.40457 28.5431 -14.8564
lowerback 4.68391 0.374315 5.32959
upperback -3.53776 1.03313 1.95923
thorax -6.27487 0.331082 -1.04569
lowerneck -10.8627 1.75378 0.022024
upperneck 0.969858 2.53721 -4.3102
head 2.2529 1.13313 -1.25539
rclavicle -4.73108e-014 4.85035e-014
rhumerus 37.4378 -36.5408 -52.9284
rradius 111.328
rwrist -67.7029
rhand -19.1581 -23.629
rfingers 7.12502
rthumb 7.1525 -53.4882
lclavicle -4.73108e-014 4.85035e-014
lhumerus -60.9236 -29.9683 104.848
lradius 80.8046
lwrist 23.4139
lhand 6.45835 11.3706
lfingers 7.12502
lthumb 31.76 38.6244
rfemur -19.7812 -29.7348 11.015
rtibia 36.0744
rfoot -7.90449 -9.79084
rtoes -43.1244
lfemur -47.8108 28.2349 3.61365
ltibia 63.7066
lfoot -17.9249 10.1294
ltoes -1.53589
286
root 2.49215 15.2721 -28.9117 5.80825 30.4928 -15.577
lowerback 4.51207 0.399522 5.29556
upperback -3.72121 1.07441 2.12734
thorax -6.37253 0.354075 -0.85334
lowerneck -10.9004 1.6508 0.157304
upperneck 1.96783 2.42207 -4.37195
head 2.5979 1.05711 -1.309
rclavicle 1.33186e-014 2.78299e-014
rhumerus 37.9793 -38.0155 -56.374
rradius 110.97
rwrist -69.4084
rhand -22.597 -25.8137
rfingers 7.12502
rthumb 3.83229 -55.759
lclavicle 1.33186e-014 2.78299e-014
lhumerus -60.5151 -29.3634 104.442
lradius 80.5855
lwrist 23.0915
lhand 6.12184 10.6441
lfingers 7.12502
lthumb 31.4394 37.9609
rfemur -17.6234 -28.2649 11.0471
rtibia 34.1554
rfoot -5.89022 -12.3479
rtoes -42.9927
lfemur -48.467 27.5712 3.39252
ltibia 63.67
lfoot -18.4434 9.58103
ltoes -0.601401
287
root 2.61402 15.3117 -28.8932 5.11578 32.5563 -16.3686
lowerback 4.31765 0.40717 5.27116
upperback -3.91209 1.09269 2.29795
thorax -6.46667 0.365971 -0.661103
lowerneck -10.9202 1.49847 0.280959
upperneck 2.99117 2.24293 -4.41527
head 2.94989 0.950565 -1.36059
rclavicle -6.61953e-014 -2.62396e-014
rhumerus 37.5766 -39.3172 -58.8421
rradius 110.754
rwrist -70.0188
rhand -26.206 -27.9877
rfingers 7.12502
rthumb 0.346802 -57.9671
lclavicle -6.61953e-014 -2.62396e-014
lhumerus -60.1149 -28.7803 104.13
lradius 80.2682
lwrist 22.9013
lhand 5.69674 10.2835
lfingers 7.12502
lthumb 31.0343 37.6784
rfemur -15.3293 -26.5153 11.1692
rtibia 32.0678
rfoot -3.64461 -15.1902
rtoes -42.7566
lfemur -48.9975 26.7782 3.21805
ltibia 63.546
lfoot -18.9318 9.30484
ltoes -0.0470916
288
root 2.74392 15.3548 -28.8707 4.33364 34.7281 -17.1962
lowerback 4.10438 0.391875 5.21018
upperback -4.10626 1.07598 2.45057
thorax -6.55532 0.362464 -0.463593
lowerneck -10.9336 1.31401 0.392388
upperneck 4.0841 2.02033 -4.38845
head 3.32617 0.825347 -1.39224
rclavicle -1.21358e-013 -4.29375e-014
rhumerus 36.0702 -40.366 -60.1116
rradius 110.571
rwrist -69.3523
rhand -29.8031 -30.2028
rfingers 7.12502
rthumb -3.12733 -60.1596
lclavicle -1.21358e-013 -4.29375e-014
lhumerus -59.7337 -28.2314 103.886
lradius 79.8662
lwrist 22.8297
lhand 5.10941 10.3108
lfingers 7.12502
lthumb 30.4743 37.8112
rfemur -12.9166 -24.459 11.3647
rtibia 29.8479
rfoot -1.19885 -18.3504
rtoes -42.4101
lfemur -49.38 25.8551 3.06254
ltibia 63.3467
lfoot -19.4151 9.3507
ltoes 0.115518
289
root 2.88204 15.4001 -28.8455 3.49621 37.0022 -18.0181
lowerback 3.86752 0.349327 5.07758
upperback -4.30037 1.01473 2.57461
thorax -6.63213 0.340389 -0.25167
lowerneck -10.9099 1.1076 0.459881
upperneck 5.19457 1.76598 -4.2624
head 3.70292 0.690025 -1.38713
rclavicle 4.37326e-014 -5.1684e-014
rhumerus 33.3752 -41.0152 -60.0325
rradius 110.343
rwrist -67.4166
rhand -33.3322 -32.6765
rfingers 7.12502
rthumb -6.53491 -62.5557
lclavicle 4.37326e-014 -5.1684e-014
lhumerus -59.3719 -27.7096 103.694
lradius 79.4063
lwrist 22.864
lhand 4.28038 10.8311
lfingers 7.12502
lthumb 29.6833 38.4753
rfemur -10.4431 -22.1035 11.6136
rtibia 27.5518
rfoot 1.36671 -21.8093
rtoes -41.8313
lfemur -49.632 24.7845 2.885
ltibia 63.0875
lfoot -19.9286 9.70539
ltoes -0.156233
290
root 3.02789 15.4456 -28.8183 2.63183 39.378 -18.8119
lowerback 3.59305 0.275738 4.83779
upperback -4.48218 0.900349 2.67727
thorax -6.67572 0.29802 0.00250506
lowerneck -10.8371 0.88376 0.473621
upperneck 6.26587 1.48502 -4.05867
head 4.05857 0.547507 -1.34898
rclavicle -3.75703e-014 -5.56597e-015
rhumerus 29.5398 -41.0771 -58.6061
rradius 110.003
rwrist -64.3254
rhand -36.6043 -35.6996
rfingers 7.12502
rthumb -9.69286 -65.4566
lclavicle -3.75703e-014 -5.56597e-015
lhumerus -59.0143 -27.2061 103.556
lradius 78.9086
lwrist 23.009
lhand 3.1572 11.6602
lfingers 7.12502
lthumb 28.6108 39.4902
rfemur -7.97173 -19.4849 11.9136
rtibia 25.2593
rfoot 3.94454 -25.5923
rtoes -40.9871
lfemur -49.7777 23.5501 2.67114
ltibia 62.7773
lfoot -20.4724 10.2978
ltoes -0.868958
291
root 3.18077 15.4899 -28.7902 1.75932 41.8596 -19.5591
lowerback 3.30083 0.160229 4.477
upperback -4.65029 0.719339 2.75905
thorax -6.69511 0.229161 0.307768
lowerneck -10.6994 0.652147 0.429007
upperneck 7.26746 1.18955 -3.78677
head 4.3793 0.403714 -1.27805
rclavicle 4.25399e-014 3.18055e-015
rhumerus 24.743 -40.3403 -56.0368
rradius 109.513
rwrist -60.2887
rhand -39.4334 -39.6401
rfingers 7.12502
rthumb -12.4215 -69.251
lclavicle 4.25399e-014 3.18055e-015
lhumerus -58.6657 -26.6945 103.448
lradius 78.4015
lwrist 23.208
lhand 1.78601 12.3711
lfingers 7.12502
lthumb 27.2999 40.4146
rfemur -5.55824 -16.6779 12.2541
rtibia 23.0754
rfoot 6.2754 -29.697
rtoes -39.7043
lfemur -49.8403 22.1346 2.41085
ltibia 62.4217
lfoot -21.0545 10.9914
ltoes -2.02084
292
root 3.34051 15.5316 -28.7628 0.88507 44.4359 -20.2785
lowerback 2.97953 -0.000141774 4.01356
upperback -4.78911 0.469338 2.83536
thorax -6.66501 0.132481 0.669408
lowerneck -10.508 0.410648 0.278641
upperneck 8.54159 0.901308 -3.56218
head 4.29129 0.248312 -1.08036
rclavicle -4.50247e-014 1.98785e-014
rhumerus 19.3352 -38.6382 -52.711
rradius 108.883
rwrist -55.6459
rhand -41.5454 -44.5035
rfingers 7.12502
rthumb -14.4572 -73.9799
lclavicle -4.50247e-014 1.98785e-014
lhumerus -58.2946 -26.1492 103.339
lradius 77.9035
lwrist 23.444
lhand 0.225221 13.1725
lfingers 7.12502
lthumb 25.8061 41.4421
rfemur -3.28258 -13.8024 12.6473
rtibia 21.1243
rfoot 7.9439 -34.1024
rtoes -37.6364
lfemur -49.8576 20.5491 2.11603
ltibia 62.0266
lfoot -21.6593 11.6041
ltoes -3.31975
